<?xml version="1.0" standalone="no"?><svg xmlns="http://www.w3.org/2000/svg" viewBox="0 0 1440 320"><path fill="#ffd700" fill-opacity="0.6" d="M0,96L34.3,85.3C68.6,75,137,53,206,37.3C274.3,21,343,11,411,48C480,85,549,171,617,218.7C685.7,267,754,277,823,240C891.4,203,960,117,1029,85.3C1097.1,53,1166,75,1234,101.3C1302.9,128,1371,160,1406,176L1440,192L1440,320L1405.7,320C1371.4,320,1303,320,1234,320C1165.7,320,1097,320,1029,320C960,320,891,320,823,320C754.3,320,686,320,617,320C548.6,320,480,320,411,320C342.9,320,274,320,206,320C137.1,320,69,320,34,320L0,320Z"></path></svg>